<?xml version="1.0" encoding="UTF-8" standalone="no"?>
<!DOCTYPE svg PUBLIC "-//W3C//DTD SVG 1.1//EN" "http://www.w3.org/Graphics/SVG/1.1/DTD/svg11.dtd">
<svg xmlns="http://www.w3.org/2000/svg" version="1.1" viewBox="0.00 0.00 512.00 320.00">
<path stroke="#fc813e" stroke-width="5.00" fill="none" stroke-linecap="butt" vector-effect="non-scaling-stroke" d="
  M 256.19 32.15
  Q 247.11 39.16 238.96 47.32
  A 0.40 0.40 0.0 0 0 239.24 48.00
  L 273.43 48.00
  Q 273.99 48.00 274.36 48.43
  L 286.96 63.16
  A 0.51 0.51 0.0 0 1 286.57 64.00
  L 224.88 64.00
  Q 224.32 64.00 224.01 64.47
  L 214.12 79.36
  A 0.41 0.41 0.0 0 0 214.46 80.00
  L 297.60 80.00
  Q 298.16 80.00 298.41 80.50
  L 306.17 95.42
  A 0.40 0.39 76.0 0 1 305.83 96.00
  L 206.15 96.00
  Q 205.56 96.00 205.36 96.55
  L 199.74 111.38
  A 0.46 0.45 -79.6 0 0 200.16 112.00
  L 311.85 112.00
  Q 312.45 112.00 312.60 112.58
  L 316.43 127.48
  Q 316.57 128.00 316.03 128.00
  L 195.95 128.00
  A 0.71 0.70 4.2 0 0 195.25 128.60
  L 192.95 143.63
  A 0.32 0.32 0.0 0 0 193.27 144.00
  L 318.47 144.00
  A 0.76 0.76 0.0 0 1 319.23 144.72
  L 320.06 159.32
  A 0.64 0.64 0.0 0 1 319.42 160.00
  L 192.47 160.00
  Q 191.93 160.00 191.96 160.53
  L 192.80 174.97
  Q 192.86 176.00 193.90 176.00
  L 318.44 176.00
  Q 319.13 176.00 319.02 176.69
  L 316.68 191.49
  Q 316.60 192.00 316.09 192.00
  L 195.94 192.00
  A 0.46 0.46 0.0 0 0 195.49 192.58
  L 199.43 207.44
  A 0.76 0.76 0.0 0 0 200.16 208.00
  L 311.83 208.00
  Q 312.45 208.00 312.23 208.58
  L 306.66 223.46
  Q 306.46 224.00 305.88 224.00
  L 206.34 224.00
  Q 205.52 224.00 205.89 224.73
  L 213.48 239.60
  Q 213.68 240.00 214.13 240.00
  L 297.31 240.00
  Q 298.25 240.00 297.72 240.78
  L 287.75 255.54
  Q 287.44 256.00 286.88 256.00
  L 225.18 256.00
  Q 224.17 256.00 224.83 256.77
  L 237.66 271.58
  Q 238.02 272.00 238.58 272.00
  L 272.75 272.00
  Q 273.57 272.00 273.00 272.59
  Q 265.27 280.59 256.19 287.86"
/>
<path fill="#f93232" d="
  M 156.33 0.00
  L 163.81 0.00
  Q 215.17 1.72 256.19 32.15
  Q 247.11 39.16 238.96 47.32
  A 0.40 0.40 0.0 0 0 239.24 48.00
  L 273.43 48.00
  Q 273.99 48.00 274.36 48.43
  L 286.96 63.16
  A 0.51 0.51 0.0 0 1 286.57 64.00
  L 224.88 64.00
  Q 224.32 64.00 224.01 64.47
  L 214.12 79.36
  A 0.41 0.41 0.0 0 0 214.46 80.00
  L 297.60 80.00
  Q 298.16 80.00 298.41 80.50
  L 306.17 95.42
  A 0.40 0.39 76.0 0 1 305.83 96.00
  L 206.15 96.00
  Q 205.56 96.00 205.36 96.55
  L 199.74 111.38
  A 0.46 0.45 -79.6 0 0 200.16 112.00
  L 311.85 112.00
  Q 312.45 112.00 312.60 112.58
  L 316.43 127.48
  Q 316.57 128.00 316.03 128.00
  L 195.95 128.00
  A 0.71 0.70 4.2 0 0 195.25 128.60
  L 192.95 143.63
  A 0.32 0.32 0.0 0 0 193.27 144.00
  L 318.47 144.00
  A 0.76 0.76 0.0 0 1 319.23 144.72
  L 320.06 159.32
  A 0.64 0.64 0.0 0 1 319.42 160.00
  L 192.47 160.00
  Q 191.93 160.00 191.96 160.53
  L 192.80 174.97
  Q 192.86 176.00 193.90 176.00
  L 318.44 176.00
  Q 319.13 176.00 319.02 176.69
  L 316.68 191.49
  Q 316.60 192.00 316.09 192.00
  L 195.94 192.00
  A 0.46 0.46 0.0 0 0 195.49 192.58
  L 199.43 207.44
  A 0.76 0.76 0.0 0 0 200.16 208.00
  L 311.83 208.00
  Q 312.45 208.00 312.23 208.58
  L 306.66 223.46
  Q 306.46 224.00 305.88 224.00
  L 206.34 224.00
  Q 205.52 224.00 205.89 224.73
  L 213.48 239.60
  Q 213.68 240.00 214.13 240.00
  L 297.31 240.00
  Q 298.25 240.00 297.72 240.78
  L 287.75 255.54
  Q 287.44 256.00 286.88 256.00
  L 225.18 256.00
  Q 224.17 256.00 224.83 256.77
  L 237.66 271.58
  Q 238.02 272.00 238.58 272.00
  L 272.75 272.00
  Q 273.57 272.00 273.00 272.59
  Q 265.27 280.59 256.19 287.86
  Q 255.93 287.95 255.38 288.35
  Q 214.45 318.41 163.44 320.00
  L 156.21 320.00
  C 70.69 317.19 2.61 250.02 0.00 163.68
  L 0.00 156.43
  C 3.44 69.74 69.50 3.17 156.33 0.00
  Z"
/>
<path fill="#fed049" d="
  M 347.32 0.00
  L 355.80 0.00
  C 442.54 3.17 508.51 69.75 512.00 156.31
  L 512.00 163.30
  C 510.84 201.21 497.30 237.11 472.25 265.34
  Q 426.52 316.86 355.48 320.00
  L 348.21 320.00
  Q 297.32 318.33 256.19 287.86
  Q 265.27 280.59 273.00 272.59
  Q 273.57 272.00 272.75 272.00
  L 238.58 272.00
  Q 238.02 272.00 237.66 271.58
  L 224.83 256.77
  Q 224.17 256.00 225.18 256.00
  L 286.88 256.00
  Q 287.44 256.00 287.75 255.54
  L 297.72 240.78
  Q 298.25 240.00 297.31 240.00
  L 214.13 240.00
  Q 213.68 240.00 213.48 239.60
  L 205.89 224.73
  Q 205.52 224.00 206.34 224.00
  L 305.88 224.00
  Q 306.46 224.00 306.66 223.46
  L 312.23 208.58
  Q 312.45 208.00 311.83 208.00
  L 200.16 208.00
  A 0.76 0.76 0.0 0 1 199.43 207.44
  L 195.49 192.58
  A 0.46 0.46 0.0 0 1 195.94 192.00
  L 316.09 192.00
  Q 316.60 192.00 316.68 191.49
  L 319.02 176.69
  Q 319.13 176.00 318.44 176.00
  L 193.90 176.00
  Q 192.86 176.00 192.80 174.97
  L 191.96 160.53
  Q 191.93 160.00 192.47 160.00
  L 319.42 160.00
  A 0.64 0.64 0.0 0 0 320.06 159.32
  L 319.23 144.72
  A 0.76 0.76 0.0 0 0 318.47 144.00
  L 193.27 144.00
  A 0.32 0.32 0.0 0 1 192.95 143.63
  L 195.25 128.60
  A 0.71 0.70 4.2 0 1 195.95 128.00
  L 316.03 128.00
  Q 316.57 128.00 316.43 127.48
  L 312.60 112.58
  Q 312.45 112.00 311.85 112.00
  L 200.16 112.00
  A 0.46 0.45 -79.6 0 1 199.74 111.38
  L 205.36 96.55
  Q 205.56 96.00 206.15 96.00
  L 305.83 96.00
  A 0.40 0.39 76.0 0 0 306.17 95.42
  L 298.41 80.50
  Q 298.16 80.00 297.60 80.00
  L 214.46 80.00
  A 0.41 0.41 0.0 0 1 214.12 79.36
  L 224.01 64.47
  Q 224.32 64.00 224.88 64.00
  L 286.57 64.00
  A 0.51 0.51 0.0 0 0 286.96 63.16
  L 274.36 48.43
  Q 273.99 48.00 273.43 48.00
  L 239.24 48.00
  A 0.40 0.40 0.0 0 1 238.96 47.32
  Q 247.11 39.16 256.19 32.15
  Q 296.77 2.05 347.32 0.00
  Z"
/>
</svg>
