<?xml version="1.0" encoding="UTF-8" standalone="no"?>
<!DOCTYPE svg PUBLIC "-//W3C//DTD SVG 1.1//EN" "http://www.w3.org/Graphics/SVG/1.1/DTD/svg11.dtd">
<svg xmlns="http://www.w3.org/2000/svg" version="1.1" viewBox="0.00 0.00 512.00 512.00">
<g stroke-width="5.00" fill="none" stroke-linecap="butt">
<path stroke="#253473" vector-effect="non-scaling-stroke" d="
  M 99.91 223.00
  Q 98.98 223.52 98.50 222.82
  Q 87.49 218.98 81.51 218.99
  Q 63.65 219.00 46.18 219.00
  A 4.56 4.55 4.3 0 0 41.69 222.86
  L 34.91 266.98"
/>
<path stroke="#1d6bab" vector-effect="non-scaling-stroke" d="
  M 34.91 266.98
  Q 34.14 267.36 34.00 268.25
  Q 31.02 287.21 27.88 306.01"
/>
<path stroke="#1b639e" vector-effect="non-scaling-stroke" d="
  M 100.59 224.37
  Q 100.03 224.94 99.98 225.21
  Q 93.91 259.14 59.52 262.81
  Q 55.44 263.24 40.00 262.97
  Q 38.14 262.93 34.91 266.98"
/>
</g>
<path fill="#263b80" d="
  M 99.91 223.00
  Q 98.98 223.52 98.50 222.82
  Q 87.49 218.98 81.51 218.99
  Q 63.65 219.00 46.18 219.00
  A 4.56 4.55 4.3 0 0 41.69 222.86
  L 34.91 266.98
  Q 34.14 267.36 34.00 268.25
  Q 31.02 287.21 27.88 306.01
  Q 15.40 305.99 3.25 306.00
  Q 1.10 306.00 0.00 302.93
  L 0.00 300.98
  Q 8.10 249.55 15.82 198.15
  C 16.43 194.08 18.22 190.61 22.55 190.56
  Q 52.83 190.23 68.00 190.73
  C 87.42 191.38 101.70 201.38 99.91 223.00
  Z"
/>
<path fill="#232c65" d="
  M 99.91 223.00
  L 100.59 224.37
  Q 100.03 224.94 99.98 225.21
  Q 93.91 259.14 59.52 262.81
  Q 55.44 263.24 40.00 262.97
  Q 38.14 262.93 34.91 266.98
  L 41.69 222.86
  A 4.56 4.55 4.3 0 1 46.18 219.00
  Q 63.65 219.00 81.51 218.99
  Q 87.49 218.98 98.50 222.82
  Q 98.98 223.52 99.91 223.00
  Z"
/>
<path fill="#139ad6" d="
  M 100.59 224.37
  Q 107.91 230.58 108.56 240.45
  C 109.73 257.99 102.83 275.84 85.46 281.93
  Q 77.73 284.63 72.43 284.66
  C 69.40 284.67 63.16 284.25 60.89 286.03
  C 58.77 287.69 59.33 290.54 59.01 292.48
  Q 56.94 305.07 55.11 316.96
  A 4.17 4.17 0.0 0 1 50.99 320.50
  L 28.97 320.50
  A 2.94 2.93 4.7 0 1 26.07 317.09
  L 27.88 306.01
  Q 31.02 287.21 34.00 268.25
  Q 34.14 267.36 34.91 266.98
  Q 38.14 262.93 40.00 262.97
  Q 55.44 263.24 59.52 262.81
  Q 93.91 259.14 99.98 225.21
  Q 100.03 224.94 100.59 224.37
  Z"
/>
<path fill="#263b80" d="
  M 199.92 224.99
  C 218.86 225.40 224.62 236.87 220.09 254.05
  C 214.67 274.60 198.38 276.46 180.00 275.98
  A 3.57 3.57 0.0 0 0 176.39 278.95
  Q 174.89 287.78 173.39 297.08
  C 172.25 304.12 161.78 302.02 156.70 301.99
  Q 153.21 301.97 153.76 298.52
  L 164.85 228.81
  A 4.81 4.81 0.0 0 1 169.56 224.76
  Q 184.26 224.65 199.92 224.99
  Z
  M 199.17 254.20
  C 203.66 241.60 193.11 239.59 183.91 241.29
  A 1.21 1.21 0.0 0 0 182.93 242.28
  L 179.73 260.50
  Q 179.62 261.11 180.24 261.16
  C 186.91 261.70 196.36 262.06 199.17 254.20
  Z"
/>
<path fill="#139ad6" d="
  M 354.55 301.98
  A 1.89 1.89 0.0 0 1 352.67 299.79
  L 363.98 228.75
  A 4.71 4.71 0.0 0 1 368.61 224.78
  Q 382.27 224.69 397.00 224.76
  Q 406.20 224.80 413.92 229.24
  C 423.03 234.48 421.07 247.12 418.69 255.49
  C 413.04 275.30 396.53 276.14 378.99 275.93
  C 377.02 275.91 375.77 277.63 375.45 279.56
  Q 373.67 290.15 372.04 300.52
  A 1.71 1.71 0.0 0 1 370.35 301.96
  L 354.55 301.98
  Z
  M 381.13 242.79
  L 378.05 260.52
  Q 377.96 261.05 378.49 261.10
  C 387.89 262.10 401.42 261.10 398.83 247.22
  C 397.55 240.36 387.84 240.73 383.04 241.06
  A 2.09 2.08 -87.0 0 0 381.13 242.79
  Z"
/>
<path fill="#139ad6" d="
  M 512.00 227.06
  L 512.00 228.78
  L 500.79 298.65
  A 4.87 4.87 0.0 0 1 495.98 302.75
  L 484.95 302.75
  A 2.22 2.21 4.4 0 1 482.76 300.20
  L 494.16 227.01
  A 1.76 1.76 0.0 0 1 495.89 225.52
  Q 502.24 225.46 509.39 225.53
  C 510.60 225.54 511.42 226.09 512.00 227.06
  Z"
/>
<path fill="#263b80" d="
  M 257.27 296.36
  Q 249.78 302.65 240.05 302.78
  C 200.13 303.30 217.72 238.67 256.90 250.54
  C 259.84 251.44 262.09 253.22 263.76 255.65
  A 0.50 0.50 0.0 0 0 264.66 255.28
  C 264.08 252.24 265.72 250.73 268.74 250.75
  Q 274.43 250.77 280.01 250.74
  A 3.40 3.39 -85.7 0 1 283.38 254.67
  L 276.45 297.76
  A 5.02 5.01 -85.9 0 1 271.59 301.98
  Q 266.82 302.05 261.81 301.98
  C 257.77 301.92 257.13 300.83 258.15 296.92
  Q 258.59 295.25 257.27 296.36
  Z
  M 261.47 273.12
  C 258.92 255.98 227.15 264.06 236.92 285.43
  Q 237.65 287.01 238.82 287.68
  C 249.05 293.45 263.28 285.31 261.47 273.12
  Z"
/>
<path fill="#139ad6" d="
  M 455.60 296.34
  C 439.87 309.42 413.45 302.64 415.94 278.10
  C 417.84 259.45 433.94 246.14 452.72 249.87
  Q 458.62 251.04 462.32 255.70
  Q 462.89 256.42 462.80 255.50
  Q 462.56 252.92 464.29 251.14
  A 1.29 1.28 -67.6 0 1 465.21 250.75
  L 478.26 250.75
  A 3.45 3.45 0.0 0 1 481.67 254.75
  L 474.80 297.54
  A 5.30 5.29 4.0 0 1 469.68 301.99
  Q 464.46 302.08 458.57 301.84
  Q 455.41 301.70 456.32 296.76
  Q 456.55 295.55 455.60 296.34
  Z
  M 434.61 284.41
  C 436.60 289.90 445.30 290.48 449.62 288.86
  C 458.36 285.58 465.65 271.79 454.91 265.84
  C 448.75 262.43 442.53 263.34 437.50 268.13
  Q 430.96 274.36 434.61 284.41
  Z"
/>
<path fill="#263b80" d="
  M 316.54 279.42
  L 333.79 252.71
  A 4.30 4.29 -73.5 0 1 337.39 250.75
  L 350.85 250.75
  A 2.31 2.31 0.0 0 1 352.75 254.38
  L 307.23 319.75
  A 3.87 3.85 -72.7 0 1 304.11 321.40
  L 291.62 321.54
  A 2.70 2.70 0.0 0 1 289.38 317.28
  L 302.88 298.24
  A 0.90 0.88 -37.1 0 0 303.00 297.45
  L 288.64 255.11
  A 2.73 2.73 0.0 0 1 291.22 251.50
  L 304.44 251.50
  A 3.82 3.80 81.2 0 1 308.07 254.17
  L 315.92 279.33
  Q 316.14 280.03 316.54 279.42
  Z"
/>
</svg>
