<?xml version="1.0" encoding="UTF-8" standalone="no"?>
<!DOCTYPE svg PUBLIC "-//W3C//DTD SVG 1.1//EN" "http://www.w3.org/Graphics/SVG/1.1/DTD/svg11.dtd">
<svg xmlns="http://www.w3.org/2000/svg" version="1.1" viewBox="0.00 0.00 512.00 512.00">
<g stroke-width="5.00" fill="none" stroke-linecap="butt">
<path stroke="#172466" vector-effect="non-scaling-stroke" d="
  M 357.38 313.26
  L 325.33 281.94"
/>
<path stroke="#3347a4" vector-effect="non-scaling-stroke" d="
  M 292.91 261.88
  Q 285.39 255.67 281.19 248.00
  Q 277.21 240.76 276.57 230.92
  Q 274.76 203.00 299.20 187.41
  C 300.82 186.38 303.31 186.23 304.71 184.17"
/>
<path stroke="#172466" vector-effect="non-scaling-stroke" d="
  M 263.56 293.57
  Q 262.55 293.94 263.73 294.49
  Q 283.97 303.85 306.30 302.23
  C 311.24 301.88 322.47 299.22 324.36 293.76"
/>
<path stroke="#fbaa0f" vector-effect="non-scaling-stroke" d="
  M 12.74 183.26
  Q 12.19 183.93 13.21 184.87
  Q 13.57 185.20 14.06 185.21
  Q 22.24 185.29 27.43 185.83
  Q 50.03 188.20 72.66 190.30
  C 81.95 191.16 88.28 192.84 92.87 200.59
  C 96.13 206.11 97.29 216.12 99.08 223.37
  Q 99.19 223.79 99.46 224.07
  Q 100.41 225.03 100.30 224.28"
/>
<path stroke="#7e5531" vector-effect="non-scaling-stroke" d="
  M 106.97 255.59
  Q 89.11 219.46 54.02 200.02
  A 0.65 0.64 -82.9 0 0 53.09 200.75
  L 54.13 204.77"
/>
<path stroke="#906753" vector-effect="non-scaling-stroke" d="
  M 54.13 204.77
  Q 53.75 205.35 53.19 205.03"
/>
<path stroke="#172466" vector-effect="non-scaling-stroke" d="
  M 118.93 330.04
  Q 104.50 328.81 89.91 329.66
  Q 89.28 329.70 89.11 329.09
  L 54.13 204.77"
/>
<path stroke="#3347a4" vector-effect="non-scaling-stroke" d="
  M 162.53 184.03
  L 127.85 255.06"
/>
<path stroke="#213582" vector-effect="non-scaling-stroke" d="
  M 127.85 255.06
  Q 126.09 253.86 126.22 252.99"
/>
<path stroke="#172466" vector-effect="non-scaling-stroke" d="
  M 150.36 290.87
  Q 150.72 286.37 153.19 281.92
  A 1.55 1.54 37.1 0 0 152.93 280.07
  L 127.85 255.06"
/>
<path stroke="#172466" vector-effect="non-scaling-stroke" d="
  M 228.25 329.82
  L 228.24 329.01
  Q 228.24 328.51 227.89 328.15
  L 195.41 294.88"
/>
<path stroke="#3347a4" vector-effect="non-scaling-stroke" d="
  M 195.41 294.88
  L 221.00 183.12"
/>
<path stroke="#213582" vector-effect="non-scaling-stroke" d="
  M 195.41 294.88
  L 194.15 293.50"
/>
<path stroke="#172466" vector-effect="non-scaling-stroke" d="
  M 498.17 270.06
  Q 473.79 246.84 450.40 223.90
  C 450.25 223.75 449.96 223.68 449.77 223.70
  Q 449.36 223.75 449.53 224.13
  L 449.77 224.67
  Q 449.86 224.89 449.63 224.88
  L 448.64 224.85
  Q 448.13 224.83 447.82 225.25
  L 369.66 329.82"
/>
<path stroke="#3347a4" vector-effect="non-scaling-stroke" d="
  M 369.90 317.55
  Q 402.95 256.01 434.48 194.12
  C 437.56 188.07 440.95 185.48 447.05 183.30"
/>
</g>
<path fill="#293688" d="
  M 357.38 313.26
  L 325.33 281.94
  Q 320.75 276.31 314.69 273.31
  Q 300.30 266.19 292.91 261.88
  Q 285.39 255.67 281.19 248.00
  Q 277.21 240.76 276.57 230.92
  Q 274.76 203.00 299.20 187.41
  C 300.82 186.38 303.31 186.23 304.71 184.17
  C 326.86 175.47 353.84 176.75 375.92 184.52
  A 0.68 0.68 0.0 0 1 376.36 185.30
  L 369.97 216.43
  A 0.38 0.38 0.0 0 1 369.44 216.70
  Q 348.64 207.14 325.75 210.26
  C 317.56 211.37 305.52 219.75 314.56 228.95
  Q 316.70 231.14 322.65 234.28
  C 333.42 239.97 345.45 244.97 355.03 252.47
  C 375.43 268.44 373.62 294.82 357.38 313.26
  Z"
/>
<path fill="#f7981d" d="
  M 12.74 183.26
  Q 12.19 183.93 13.21 184.87
  Q 13.57 185.20 14.06 185.21
  Q 22.24 185.29 27.43 185.83
  Q 50.03 188.20 72.66 190.30
  C 81.95 191.16 88.28 192.84 92.87 200.59
  C 96.13 206.11 97.29 216.12 99.08 223.37
  Q 99.19 223.79 99.46 224.07
  Q 100.41 225.03 100.30 224.28
  L 106.97 255.59
  Q 89.11 219.46 54.02 200.02
  A 0.65 0.64 -82.9 0 0 53.09 200.75
  L 54.13 204.77
  Q 53.75 205.35 53.19 205.03
  Q 53.11 204.42 52.64 204.15
  C 36.07 194.66 19.28 188.51 0.87 183.62
  A 0.22 0.22 0.0 0 1 0.93 183.19
  L 12.74 183.26
  Z"
/>
<path fill="#293688" d="
  M 228.25 329.82
  L 228.24 329.01
  Q 228.24 328.51 227.89 328.15
  L 195.41 294.88
  L 221.00 183.12
  L 254.05 183.06
  A 0.44 0.43 5.0 0 1 254.48 183.57
  Q 242.00 256.11 229.49 328.74
  Q 229.39 329.30 229.13 329.52
  Q 228.78 329.80 228.25 329.82
  Z"
/>
<path fill="#293688" d="
  M 498.17 270.06
  Q 473.79 246.84 450.40 223.90
  C 450.25 223.75 449.96 223.68 449.77 223.70
  Q 449.36 223.75 449.53 224.13
  L 449.77 224.67
  Q 449.86 224.89 449.63 224.88
  L 448.64 224.85
  Q 448.13 224.83 447.82 225.25
  L 369.66 329.82
  L 364.60 329.75
  A 0.43 0.42 -76.3 0 1 364.23 329.13
  L 369.90 317.55
  Q 402.95 256.01 434.48 194.12
  C 437.56 188.07 440.95 185.48 447.05 183.30
  L 476.92 183.08
  A 1.27 1.27 0.0 0 1 478.17 184.06
  L 498.17 270.06
  Z"
/>
<path fill="#ffbc00" d="
  M 12.74 183.26
  Q 44.01 183.24 75.25 183.31
  C 86.23 183.34 92.09 186.39 94.61 197.46
  Q 97.65 210.80 100.30 224.28
  Q 100.41 225.03 99.46 224.07
  Q 99.19 223.79 99.08 223.37
  C 97.29 216.12 96.13 206.11 92.87 200.59
  C 88.28 192.84 81.95 191.16 72.66 190.30
  Q 50.03 188.20 27.43 185.83
  Q 22.24 185.29 14.06 185.21
  Q 13.57 185.20 13.21 184.87
  Q 12.19 183.93 12.74 183.26
  Z"
/>
<path fill="#3c58bf" d="
  M 221.00 183.12
  L 195.41 294.88
  L 194.15 293.50
  L 213.67 183.78
  Q 213.77 183.26 214.29 183.25
  L 221.00 183.12
  Z"
/>
<path fill="#3c58bf" d="
  M 447.05 183.30
  C 440.95 185.48 437.56 188.07 434.48 194.12
  Q 402.95 256.01 369.90 317.55
  Q 391.59 267.96 422.97 198.49
  C 426.31 191.09 428.58 185.17 437.57 183.83
  Q 441.92 183.18 447.05 183.30
  Z"
/>
<path fill="#3c58bf" d="
  M 162.53 184.03
  L 127.85 255.06
  Q 126.09 253.86 126.22 252.99
  L 154.23 184.58
  Q 154.44 184.07 154.99 184.07
  L 162.53 184.03
  Z"
/>
<path fill="#293688" d="
  M 162.53 184.03
  L 197.69 184.01
  A 0.52 0.52 0.0 0 1 198.16 184.75
  L 150.36 290.87
  Q 150.72 286.37 153.19 281.92
  A 1.55 1.54 37.1 0 0 152.93 280.07
  L 127.85 255.06
  L 162.53 184.03
  Z"
/>
<path fill="#3c58bf" d="
  M 304.71 184.17
  C 303.31 186.23 300.82 186.38 299.20 187.41
  Q 274.76 203.00 276.57 230.92
  Q 277.21 240.76 281.19 248.00
  Q 285.39 255.67 292.91 261.88
  C 279.11 254.54 268.53 242.66 269.13 226.22
  C 269.88 205.48 285.82 190.71 304.71 184.17
  Z"
/>
<path fill="#051244" d="
  M 106.97 255.59
  C 110.03 264.59 111.25 273.23 112.76 282.61
  A 0.48 0.48 0.0 0 0 113.67 282.72
  L 126.22 252.99
  Q 126.09 253.86 127.85 255.06
  L 152.93 280.07
  A 1.55 1.54 37.1 0 1 153.19 281.92
  Q 150.72 286.37 150.36 290.87
  L 133.33 329.43
  Q 132.89 330.43 131.80 330.40
  L 118.93 330.04
  Q 104.50 328.81 89.91 329.66
  Q 89.28 329.70 89.11 329.09
  L 54.13 204.77
  L 53.09 200.75
  A 0.65 0.64 -82.9 0 1 54.02 200.02
  Q 89.11 219.46 106.97 255.59
  Z"
/>
<path fill="#293688" d="
  M 54.13 204.77
  L 89.11 329.09
  Q 89.28 329.70 89.91 329.66
  Q 104.50 328.81 118.93 330.04
  L 89.12 330.39
  Q 88.46 330.40 88.28 329.76
  L 53.19 205.03
  Q 53.75 205.35 54.13 204.77
  Z"
/>
<path fill="#051244" d="
  M 498.17 270.06
  L 512.00 327.85
  L 512.00 329.92
  L 474.52 329.96
  Q 472.80 329.96 472.46 328.27
  L 468.25 306.99
  Q 467.96 305.50 466.44 305.50
  L 416.95 305.50
  Q 416.24 305.50 416.01 306.17
  L 408.46 328.81
  A 1.62 1.62 0.0 0 1 406.91 329.92
  L 369.66 329.82
  L 447.82 225.25
  Q 448.13 224.83 448.64 224.85
  L 449.63 224.88
  Q 449.86 224.89 449.77 224.67
  L 449.53 224.13
  Q 449.36 223.75 449.77 223.70
  C 449.96 223.68 450.25 223.75 450.40 223.90
  Q 473.79 246.84 498.17 270.06
  Z
  M 428.78 280.75
  L 460.54 280.75
  A 0.62 0.62 0.0 0 0 461.14 279.97
  Q 460.53 277.70 459.25 271.75
  C 455.98 256.45 452.00 241.05 449.76 225.57
  A 0.58 0.58 0.0 0 0 448.65 225.45
  L 428.10 279.76
  Q 427.72 280.75 428.78 280.75
  Z"
/>
<path fill="#051244" d="
  M 325.33 281.94
  L 357.38 313.26
  C 331.81 339.26 283.98 336.84 252.61 325.77
  Q 252.11 325.59 252.05 325.06
  C 251.78 322.37 252.64 319.71 253.00 317.49
  Q 255.03 304.85 257.29 292.26
  A 0.97 0.96 16.3 0 1 258.61 291.54
  L 263.56 293.57
  Q 262.55 293.94 263.73 294.49
  Q 283.97 303.85 306.30 302.23
  C 311.24 301.88 322.47 299.22 324.36 293.76
  Q 327.62 288.78 325.33 281.94
  Z"
/>
<path fill="#051244" d="
  M 194.15 293.50
  L 195.41 294.88
  L 227.89 328.15
  Q 228.24 328.51 228.24 329.01
  L 228.25 329.82
  L 188.67 329.93
  Q 187.48 329.93 187.70 328.77
  L 194.15 293.50
  Z"
/>
<path fill="#293688" d="
  M 263.56 293.57
  C 279.36 300.92 310.39 307.85 324.36 293.76
  C 322.47 299.22 311.24 301.88 306.30 302.23
  Q 283.97 303.85 263.73 294.49
  Q 262.55 293.94 263.56 293.57
  Z"
/>
</svg>
