<?xml version="1.0" encoding="UTF-8" standalone="no"?>
<!DOCTYPE svg PUBLIC "-//W3C//DTD SVG 1.1//EN" "http://www.w3.org/Graphics/SVG/1.1/DTD/svg11.dtd">
<svg xmlns="http://www.w3.org/2000/svg" version="1.1" viewBox="0.00 0.00 512.00 512.00">
<g stroke-width="5.00" fill="none" stroke-linecap="butt">
<path stroke="#ff9013" vector-effect="non-scaling-stroke" d="
  M 148.44 197.67
  Q 141.87 203.54 133.78 202.89
  C 127.66 202.40 119.05 196.27 113.54 193.25"
/>
<path stroke="#ff9013" vector-effect="non-scaling-stroke" d="
  M 55.39 159.59
  Q 50.00 156.03 44.20 153.20
  Q 38.65 150.50 36.72 148.55
  Q 30.65 142.40 31.90 132.41"
/>
<path stroke="#94d12f" vector-effect="non-scaling-stroke" d="
  M 151.54 320.00
  C 155.63 336.61 141.36 341.36 130.25 347.96"
/>
<path stroke="#94d12f" vector-effect="non-scaling-stroke" d="
  M 72.25 381.54
  C 60.45 387.89 49.25 398.50 36.50 387.29"
/>
<path stroke="#2db3af" vector-effect="non-scaling-stroke" d="
  M 388.75 474.79
  C 388.07 473.51 389.08 473.17 389.59 472.32
  C 396.65 460.55 387.05 449.67 381.49 439.83"
/>
<path stroke="#2db3af" vector-effect="non-scaling-stroke" d="
  M 347.90 381.66
  C 341.69 371.09 336.91 356.95 321.07 360.36
  C 320.71 360.43 320.47 360.31 320.25 360.04"
/>
</g>
<path fill="#ff4b26" d="
  M 250.56 0.00
  L 261.81 0.00
  Q 362.90 3.82 434.61 72.98
  C 440.59 78.75 443.75 85.13 440.54 92.97
  Q 439.08 96.54 433.14 102.49
  Q 401.72 133.90 370.30 165.32
  Q 364.23 171.39 361.07 172.86
  C 348.01 178.93 339.20 165.74 330.91 159.36
  C 270.57 112.94 185.13 131.66 148.44 197.67
  Q 141.87 203.54 133.78 202.89
  C 127.66 202.40 119.05 196.27 113.54 193.25
  L 55.39 159.59
  Q 50.00 156.03 44.20 153.20
  Q 38.65 150.50 36.72 148.55
  Q 30.65 142.40 31.90 132.41
  Q 32.89 130.30 34.15 128.16
  C 80.07 50.33 160.08 2.60 250.56 0.00
  Z
  M 72.47 130.77
  L 129.81 163.88
  Q 130.25 164.13 130.55 163.73
  C 183.78 93.18 283.32 78.54 353.18 134.47
  Q 353.58 134.79 353.94 134.43
  L 400.78 87.59
  A 0.25 0.24 -47.3 0 0 400.77 87.23
  C 299.39 0.67 148.07 21.39 72.38 130.36
  A 0.29 0.29 0.0 0 0 72.47 130.77
  Z"
/>
<path fill="#ffd500" d="
  M 31.90 132.41
  Q 30.65 142.40 36.72 148.55
  Q 38.65 150.50 44.20 153.20
  Q 50.00 156.03 55.39 159.59
  C 26.21 221.06 26.17 291.18 55.34 352.15
  A 0.35 0.35 0.0 0 0 55.83 352.30
  L 113.04 319.25
  Q 113.51 318.97 113.30 318.47
  C 96.40 278.66 95.27 233.13 113.54 193.25
  C 119.05 196.27 127.66 202.40 133.78 202.89
  Q 141.87 203.54 148.44 197.67
  C 127.62 236.71 128.99 281.94 151.54 320.00
  C 155.63 336.61 141.36 341.36 130.25 347.96
  L 72.25 381.54
  C 60.45 387.89 49.25 398.50 36.50 387.29
  Q 35.13 385.47 34.01 383.49
  Q 1.90 326.81 0.00 261.44
  L 0.00 251.19
  Q 1.57 187.85 31.90 132.41
  Z"
/>
<path fill="#3199ff" d="
  M 512.00 250.81
  L 512.00 260.31
  C 509.26 349.35 464.80 428.35 388.75 474.79
  C 388.07 473.51 389.08 473.17 389.59 472.32
  C 396.65 460.55 387.05 449.67 381.49 439.83
  C 452.42 390.63 488.27 308.43 476.15 222.86
  A 0.42 0.41 86.0 0 0 475.74 222.50
  L 289.90 222.50
  A 0.41 0.41 0.0 0 0 289.49 222.91
  L 289.49 289.04
  A 0.47 0.46 0.0 0 0 289.96 289.50
  Q 336.83 289.49 383.73 289.51
  C 399.54 289.52 405.96 301.59 399.88 315.59
  Q 382.24 356.20 347.90 381.66
  C 341.69 371.09 336.91 356.95 321.07 360.36
  C 320.71 360.43 320.47 360.31 320.25 360.04
  Q 343.21 345.87 358.04 323.30
  Q 358.38 322.79 357.76 322.79
  Q 317.22 322.67 276.86 322.77
  C 267.88 322.80 260.85 321.01 257.43 312.54
  Q 255.99 308.98 255.99 300.76
  Q 256.01 255.51 255.99 210.26
  C 255.99 196.10 261.41 189.25 276.08 189.25
  Q 380.05 189.25 484.02 189.25
  Q 493.12 189.25 496.77 190.77
  Q 504.45 193.99 506.45 203.27
  Q 511.26 225.55 512.00 250.81
  Z"
/>
<path fill="#29cc5e" d="
  M 151.54 320.00
  C 188.45 377.40 261.33 395.78 320.25 360.04
  C 320.47 360.31 320.71 360.43 321.07 360.36
  C 336.91 356.95 341.69 371.09 347.90 381.66
  L 381.49 439.83
  C 387.05 449.67 396.65 460.55 389.59 472.32
  C 389.08 473.17 388.07 473.51 388.75 474.79
  Q 329.27 510.59 259.42 512.00
  L 252.19 512.00
  C 163.10 510.12 82.31 463.67 36.50 387.29
  C 49.25 398.50 60.45 387.89 72.25 381.54
  C 135.11 472.30 252.75 503.88 352.14 456.69
  A 0.36 0.36 0.0 0 0 352.30 456.18
  L 319.26 398.96
  Q 318.98 398.46 318.45 398.69
  C 250.39 427.89 174.56 406.69 130.25 347.96
  C 141.36 341.36 155.63 336.61 151.54 320.00
  Z"
/>
</svg>
